PathFileType	4	(X/Y/Z)	./resultDataOpenSim/trcMotMarkerGrf/sub10/qtm-04-06.trc
DataRate	CameraRate	NumFrames	NumMarkers	Units	OrigDataRate	OrigDataStartFrame	OrigNumFrames
250.000000	250.000000	6	24	m	250.000000	373	497
Frame#	Time	L.Toe.Tip			R.Toe.Tip			L.Ankle.Lat			R.Ankle.Lat			L.Ankle.Med			R.Ankle.Med			L.Heel			R.Heel			L.Knee.Lat			R.Knee.Lat			L.Knee.Med			R.Knee.Med			L.Thigh.Upper			R.Thigh.Upper			L.ASIS			R.ASIS			V.Sacral			L.Acromium			R.Acromium			C7			L.Elbow			R.Elbow			L.Wrist.Lat			R.Wrist.Lat
		X1	Y1	Z1	X2	Y2	Z2	X3	Y3	Z3	X4	Y4	Z4	X5	Y5	Z5	X6	Y6	Z6	X7	Y7	Z7	X8	Y8	Z8	X9	Y9	Z9	X10	Y10	Z10	X11	Y11	Z11	X12	Y12	Z12	X13	Y13	Z13	X14	Y14	Z14	X15	Y15	Z15	X16	Y16	Z16	X17	Y17	Z17	X18	Y18	Z18	X19	Y19	Z19	X20	Y20	Z20	X21	Y21	Z21	X22	Y22	Z22	X23	Y23	Z23	X24	Y24	Z24

373	1.488	0.67473836	0.074977414	-0.092109013	0.79582214	0.037959771	0.090493747	0.60606942	0.19083975	-0.12422124	0.65034336	0.055834614	0.11812735	0.62832186	0.20168914	-0.044345887	0.67917728	0.081916543	0.035849346	0.54096833	0.2125921	-0.077959767	0.60301602	0.032289074	0.069274489	0.85161722	0.48182575	-0.14302077	0.72802878	0.45140063	0.15489615	0.87278748	0.44986308	-0.024431592	0.74422757	0.4549817	0.028009709	0.74482782	0.84801176	-0.17444846	0.71096464	0.86795947	0.20731925	0.78966533	0.95941156	-0.10173408	0.78415851	0.96078928	0.14041898	0.58719093	0.96834662	0.0074029516	0.74053008	1.4374878	-0.11528933	0.7131469	1.4234264	0.20529029	0.64754133	1.4564769	0.034273424	0.62935591	1.1206809	-0.20276384	0.65258347	1.0705024	0.26503933	0.76004598	0.90419889	-0.23391157	0.83906606	0.92557595	0.34586492
374	1.492	0.69206131	0.073766014	-0.091935185	0.79588744	0.037941421	0.090495416	0.61962459	0.18730885	-0.12336157	0.65042049	0.055964732	0.11803265	0.64161109	0.19869614	-0.043219364	0.67920768	0.081955086	0.035817764	0.55392001	0.20712559	-0.076892016	0.60320132	0.032497226	0.069074822	0.86001369	0.48309971	-0.14243821	0.72890292	0.45141981	0.15521481	0.88091187	0.45155019	-0.024115524	0.74549669	0.45500522	0.028295139	0.75189249	0.8489188	-0.17428906	0.71449747	0.86802991	0.20755783	0.79554223	0.95999418	-0.10081248	0.78837747	0.96085921	0.14114148	0.59238684	0.9686637	0.0066326676	0.74501202	1.437646	-0.11502993	0.71756454	1.423875	0.20561102	0.65214676	1.4567437	0.034553193	0.62744778	1.1227801	-0.19958818	0.65979447	1.0704211	0.2663716	0.76018091	0.9039614	-0.23532146	0.84953622	0.92832178	0.34553057
375	1.496	0.70935259	0.072546399	-0.091729872	0.79593675	0.037919646	0.090502377	0.63330811	0.18365777	-0.12250059	0.6504923	0.056090178	0.11793246	0.65519259	0.19554673	-0.042155901	0.67926762	0.082047348	0.035759853	0.5671059	0.20150238	-0.075933093	0.60329766	0.032697592	0.068914531	0.8682809	0.48424997	-0.14186384	0.7298049	0.45143137	0.15550965	0.88879764	0.45315199	-0.023884485	0.74669967	0.45506298	0.028534798	0.75857412	0.84964546	-0.17375232	0.71799435	0.86804373	0.20778556	0.80139986	0.96051796	-0.099895779	0.79259088	0.9608712	0.14186465	0.59764175	0.96899237	0.0061406196	0.74950667	1.4377412	-0.11477682	0.72197794	1.4242477	0.20591774	0.65675183	1.4569485	0.034829308	0.62680595	1.1244883	-0.19690121	0.66715606	1.0702942	0.26759055	0.7602721	0.90373117	-0.23673121	0.85992459	0.93106019	0.34517319
376	1.5	0.72662334	0.071308612	-0.091516223	0.79597972	0.037887126	0.090503319	0.6471173	0.1798928	-0.1216372	0.65055472	0.056207482	0.11782864	0.66876241	0.19226173	-0.04119404	0.67938602	0.082162345	0.035662839	0.58049947	0.19574667	-0.075081844	0.60338013	0.032910444	0.068846809	0.87641742	0.48527973	-0.1412961	0.73073669	0.45142688	0.1557808	0.89671807	0.45464282	-0.023557589	0.74795636	0.45507198	0.028761789	0.76496812	0.85020516	-0.17292383	0.7214073	0.8679979	0.20800724	0.80720451	0.9609758	-0.098991817	0.79679778	0.96083037	0.14259211	0.60297908	0.96932326	0.0060327138	0.75401515	1.4377752	-0.1145287	0.72640422	1.4245508	0.20621825	0.6613582	1.4570841	0.035098823	0.62841183	1.1255373	-0.19550698	0.67459349	1.0701388	0.26876589	0.76031246	0.9035057	-0.23812735	0.87019287	0.93378922	0.34478181
377	1.504	0.74390106	0.070071198	-0.091300288	0.79601974	0.037839666	0.09049446	0.66106244	0.17602241	-0.1207782	0.65060436	0.056320878	0.11771991	0.6823172	0.18886909	-0.040226456	0.6795111	0.082264936	0.035549434	0.59400236	0.18987403	-0.074225811	0.60353781	0.033126358	0.068920575	0.88446728	0.48621468	-0.14072983	0.73170466	0.45140111	0.15603846	0.90475004	0.45601668	-0.02306324	0.74943107	0.45494244	0.029028961	0.77122739	0.85066251	-0.17200134	0.72467309	0.86787718	0.20822712	0.8129647	0.96136809	-0.098105212	0.80099484	0.96074029	0.14332423	0.60839946	0.96962459	0.0063383542	0.75854371	1.4377442	-0.114285	0.73085848	1.4247923	0.20651718	0.66596751	1.4571555	0.035358445	0.63183521	1.1260739	-0.19528607	0.68205938	1.0699573	0.26994778	0.76034969	0.90328691	-0.23949921	0.88036071	0.93650103	0.34434789
378	1.508	0.76123227	0.068881947	-0.091079408	0.79606434	0.037790631	0.09047842	0.67516241	0.17206033	-0.11993261	0.65064039	0.056439063	0.1176035	0.69611497	0.1854081	-0.039137601	0.67958186	0.082344807	0.035452208	0.60758416	0.18388715	-0.073295044	0.60379745	0.033281963	0.069086244	0.8924881	0.4870825	-0.14015828	0.73270956	0.45135787	0.15628433	0.91276974	0.4572806	-0.022468901	0.75114512	0.45469499	0.029349121	0.77754672	0.85110992	-0.17122872	0.72778833	0.86767871	0.20844011	0.81870882	0.96169401	-0.097234809	0.80517787	0.9606031	0.14405842	0.61385346	0.96986215	0.0069028119	0.7630907	1.4376511	-0.1140503	0.73534092	1.424972	0.20681275	0.67057596	1.4571698	0.035606571	0.63551196	1.1264821	-0.19536948	0.68954073	1.069745	0.27115534	0.76044017	0.90307275	-0.24084642	0.89046643	0.93918106	0.34387213
